<svg width="293" height="37" viewBox="0 0 293 37" fill="none" xmlns="http://www.w3.org/2000/svg">
<path d="M0.16 3.195H22.12V8.325H13.66V36H8.35V8.325H0.16V3.195ZM31.0082 36.495C29.2082 36.495 27.5732 36.12 26.1032 35.37C24.6632 34.62 23.5082 33.51 22.6382 32.04C21.7982 30.54 21.3782 28.68 21.3782 26.46C21.3782 24.33 21.8282 22.485 22.7282 20.925C23.6282 19.365 24.7982 18.165 26.2382 17.325C27.7082 16.485 29.2832 16.065 30.9632 16.065C32.8232 16.065 34.3082 16.425 35.4182 17.145C36.5282 17.865 37.4132 18.705 38.0732 19.665L37.8032 20.385L38.2982 16.92H43.0232V36H37.8932V31.41L38.3432 32.58C38.2532 32.76 38.0282 33.06 37.6682 33.48C37.3082 33.87 36.8132 34.305 36.1832 34.785C35.5832 35.235 34.8482 35.64 33.9782 36C33.1082 36.33 32.1182 36.495 31.0082 36.495ZM32.4032 32.265C33.7832 32.265 34.9382 31.92 35.8682 31.23C36.8282 30.54 37.5032 29.565 37.8932 28.305V24.12C37.5332 22.98 36.8432 22.05 35.8232 21.33C34.8032 20.61 33.6032 20.25 32.2232 20.25C31.2032 20.25 30.2582 20.505 29.3882 21.015C28.5482 21.495 27.8732 22.185 27.3632 23.085C26.8532 23.985 26.5982 25.02 26.5982 26.19C26.5982 27.36 26.8682 28.41 27.4082 29.34C27.9482 30.24 28.6532 30.96 29.5232 31.5C30.4232 32.01 31.3832 32.265 32.4032 32.265ZM54.5717 16.92L54.9767 20.97L54.8417 20.475C55.4717 19.155 56.4317 18.105 57.7217 17.325C59.0417 16.515 60.6167 16.11 62.4467 16.11C64.2467 16.11 65.7317 16.635 66.9017 17.685C68.0717 18.735 68.6717 20.115 68.7017 21.825V36H63.5717V23.67C63.5417 22.74 63.2717 21.99 62.7617 21.42C62.2517 20.82 61.4567 20.505 60.3767 20.475C58.8167 20.475 57.5417 21.15 56.5517 22.5C55.5617 23.82 55.0667 25.515 55.0667 27.585V36H49.9367V16.92H54.5717ZM83.4297 36.495C81.6297 36.495 80.0247 36.075 78.6147 35.235C77.2047 34.395 76.0797 33.195 75.2397 31.635C74.4297 30.075 74.0247 28.245 74.0247 26.145C74.0247 24.015 74.4597 22.2 75.3297 20.7C76.2297 19.2 77.4297 18.06 78.9297 17.28C80.4597 16.47 82.1697 16.065 84.0597 16.065C85.4397 16.065 86.7597 16.335 88.0197 16.875C89.2797 17.385 90.2847 18.12 91.0347 19.08L90.8997 20.79V0.854999H96.0297V36H90.8547V31.725L91.3497 32.985C90.4197 33.975 89.2797 34.815 87.9297 35.505C86.6097 36.165 85.1097 36.495 83.4297 36.495ZM85.0497 32.175C86.5197 32.175 87.7497 31.815 88.7397 31.095C89.7297 30.375 90.4347 29.385 90.8547 28.125V24.03C90.5247 22.89 89.8197 21.96 88.7397 21.24C87.6897 20.49 86.4597 20.115 85.0497 20.115C84.0297 20.115 83.0697 20.37 82.1697 20.88C81.2997 21.39 80.5947 22.095 80.0547 22.995C79.5147 23.895 79.2447 24.93 79.2447 26.1C79.2447 27.21 79.5147 28.23 80.0547 29.16C80.5947 30.09 81.2997 30.825 82.1697 31.365C83.0697 31.905 84.0297 32.175 85.0497 32.175ZM101.359 26.235C101.359 24.315 101.809 22.59 102.709 21.06C103.639 19.5 104.914 18.285 106.534 17.415C108.184 16.515 110.059 16.065 112.159 16.065C114.289 16.065 116.134 16.515 117.694 17.415C119.284 18.285 120.514 19.5 121.384 21.06C122.254 22.59 122.689 24.315 122.689 26.235C122.689 28.185 122.254 29.94 121.384 31.5C120.514 33.03 119.284 34.245 117.694 35.145C116.104 36.045 114.229 36.495 112.069 36.495C110.029 36.495 108.199 36.09 106.579 35.28C104.959 34.44 103.684 33.255 102.754 31.725C101.824 30.165 101.359 28.335 101.359 26.235ZM106.534 26.28C106.534 27.42 106.774 28.44 107.254 29.34C107.734 30.24 108.394 30.96 109.234 31.5C110.074 32.01 111.004 32.265 112.024 32.265C113.644 32.265 114.964 31.695 115.984 30.555C117.004 29.415 117.514 27.99 117.514 26.28C117.514 24.6 117.004 23.19 115.984 22.05C114.964 20.88 113.644 20.295 112.024 20.295C110.974 20.295 110.029 20.565 109.189 21.105C108.379 21.645 107.734 22.365 107.254 23.265C106.774 24.165 106.534 25.17 106.534 26.28ZM126.364 26.235C126.364 24.315 126.814 22.59 127.714 21.06C128.644 19.5 129.919 18.285 131.539 17.415C133.189 16.515 135.064 16.065 137.164 16.065C139.294 16.065 141.139 16.515 142.699 17.415C144.289 18.285 145.519 19.5 146.389 21.06C147.259 22.59 147.694 24.315 147.694 26.235C147.694 28.185 147.259 29.94 146.389 31.5C145.519 33.03 144.289 34.245 142.699 35.145C141.109 36.045 139.234 36.495 137.074 36.495C135.034 36.495 133.204 36.09 131.584 35.28C129.964 34.44 128.689 33.255 127.759 31.725C126.829 30.165 126.364 28.335 126.364 26.235ZM131.539 26.28C131.539 27.42 131.779 28.44 132.259 29.34C132.739 30.24 133.399 30.96 134.239 31.5C135.079 32.01 136.009 32.265 137.029 32.265C138.649 32.265 139.969 31.695 140.989 30.555C142.009 29.415 142.519 27.99 142.519 26.28C142.519 24.6 142.009 23.19 140.989 22.05C139.969 20.88 138.649 20.295 137.029 20.295C135.979 20.295 135.034 20.565 134.194 21.105C133.384 21.645 132.739 22.365 132.259 23.265C131.779 24.165 131.539 25.17 131.539 26.28ZM157.578 16.92L158.073 22.32L157.893 21.555C158.433 20.415 159.168 19.44 160.098 18.63C161.028 17.79 161.988 17.16 162.978 16.74C163.998 16.29 164.823 16.065 165.453 16.065L165.183 21.15C163.743 21.03 162.498 21.3 161.448 21.96C160.398 22.59 159.573 23.445 158.973 24.525C158.373 25.575 158.073 26.685 158.073 27.855V36H152.988V16.92H157.578ZM170.567 16.92H175.697V36H170.567V16.92ZM170.342 10.08C170.342 9.3 170.642 8.655 171.242 8.145C171.872 7.605 172.547 7.335 173.267 7.335C173.987 7.335 174.647 7.605 175.247 8.145C175.847 8.655 176.147 9.3 176.147 10.08C176.147 10.89 175.847 11.55 175.247 12.06C174.647 12.54 173.987 12.78 173.267 12.78C172.547 12.78 171.872 12.54 171.242 12.06C170.642 11.55 170.342 10.89 170.342 10.08ZM187.418 19.62C187.418 17.37 187.853 15.24 188.723 13.23C189.593 11.19 190.793 9.405 192.323 7.875C193.853 6.315 195.623 5.085 197.633 4.185C199.673 3.285 201.833 2.835 204.113 2.835C206.423 2.835 208.583 3.285 210.593 4.185C212.633 5.085 214.433 6.315 215.993 7.875C217.553 9.405 218.768 11.19 219.638 13.23C220.508 15.24 220.943 17.37 220.943 19.62C220.943 21.96 220.508 24.135 219.638 26.145C218.768 28.155 217.553 29.94 215.993 31.5C214.433 33.03 212.633 34.23 210.593 35.1C208.583 35.94 206.423 36.36 204.113 36.36C201.833 36.36 199.673 35.94 197.633 35.1C195.623 34.23 193.853 33.045 192.323 31.545C190.793 30.015 189.593 28.23 188.723 26.19C187.853 24.15 187.418 21.96 187.418 19.62ZM192.908 19.665C192.908 21.795 193.403 23.745 194.393 25.515C195.413 27.255 196.778 28.65 198.488 29.7C200.228 30.72 202.163 31.23 204.293 31.23C206.393 31.23 208.283 30.72 209.963 29.7C211.643 28.65 212.978 27.255 213.968 25.515C214.958 23.745 215.453 21.78 215.453 19.62C215.453 17.46 214.943 15.495 213.923 13.725C212.933 11.955 211.583 10.56 209.873 9.54C208.163 8.49 206.258 7.965 204.158 7.965C202.058 7.965 200.153 8.49 198.443 9.54C196.733 10.59 195.383 12 194.393 13.77C193.403 15.54 192.908 17.505 192.908 19.665ZM235.094 36.495L224.114 16.92H230.189L237.074 31.185L233.924 31.05L240.089 16.92H245.804L235.319 36.495H235.094ZM258.451 36.495C256.201 36.495 254.281 36.06 252.691 35.19C251.101 34.32 249.871 33.12 249.001 31.59C248.161 30.03 247.741 28.26 247.741 26.28C247.741 24.39 248.221 22.68 249.181 21.15C250.171 19.59 251.476 18.36 253.096 17.46C254.746 16.53 256.561 16.065 258.541 16.065C261.181 16.065 263.356 16.83 265.066 18.36C266.776 19.86 267.916 22.005 268.486 24.795L253.141 29.97L251.971 27.09L263.851 22.86L262.816 23.445C262.486 22.545 261.961 21.765 261.241 21.105C260.521 20.445 259.501 20.115 258.181 20.115C256.591 20.115 255.301 20.67 254.311 21.78C253.321 22.86 252.826 24.27 252.826 26.01C252.826 27.9 253.366 29.4 254.446 30.51C255.556 31.59 256.921 32.13 258.541 32.13C259.321 32.13 260.071 31.995 260.791 31.725C261.511 31.455 262.186 31.095 262.816 30.645L265.156 34.425C264.166 35.055 263.071 35.565 261.871 35.955C260.701 36.315 259.561 36.495 258.451 36.495ZM278.034 16.92L278.439 20.97L278.304 20.475C278.934 19.155 279.894 18.105 281.184 17.325C282.504 16.515 284.079 16.11 285.909 16.11C287.709 16.11 289.194 16.635 290.364 17.685C291.534 18.735 292.134 20.115 292.164 21.825V36H287.034V23.67C287.004 22.74 286.734 21.99 286.224 21.42C285.714 20.82 284.919 20.505 283.839 20.475C282.279 20.475 281.004 21.15 280.014 22.5C279.024 23.82 278.529 25.515 278.529 27.585V36H273.399V16.92H278.034Z" fill="#F76C41"/>
</svg>